<?xml version="1.0" encoding="UTF-8"?>
<svg id="Layer_2" data-name="Layer 2" xmlns="http://www.w3.org/2000/svg" viewBox="0 0 662.29 129.04">
  <defs>
    <style>
      .cls-1 {
        fill: #12214c;
      }

      .cls-2 {
        fill: #af934e;
      }
    </style>
  </defs>
  <g id="Layer_1-2" data-name="Layer 1">
    <g>
      <g>
        <g>
          <path class="cls-1" d="M163.5,103.34c-.41-.68-.98-1.26-1.67-1.72-.68-.44-1.45-.79-2.27-1.1-.85-.27-1.67-.55-2.49-.79-.85-.25-1.61-.52-2.3-.85-.68-.33-1.26-.71-1.67-1.21-.44-.49-.66-1.15-.66-1.97,0-.93.41-1.67,1.2-2.19.82-.55,1.89-.82,3.23-.82.55,0,1.15.08,1.81.19.63.11,1.29.3,1.97.55.68.25,1.34.57,1.94.98l1.01-1.97c-.88-.55-1.89-1.01-3.04-1.37-1.15-.36-2.33-.55-3.56-.55-1.42,0-2.66.22-3.75.68-1.1.44-1.94,1.07-2.52,1.86-.6.77-.9,1.72-.9,2.82s.22,1.94.63,2.63.96,1.26,1.67,1.67c.68.44,1.45.79,2.3,1.07.82.3,1.67.55,2.49.79.85.25,1.59.52,2.3.82.68.33,1.23.74,1.64,1.26.44.52.63,1.18.63,2,0,1.04-.44,1.86-1.29,2.49-.88.6-2.08.9-3.59.9-.77,0-1.56-.11-2.38-.36-.82-.22-1.61-.57-2.38-1.01-.77-.41-1.48-.96-2.13-1.56l-1.07,1.92c.66.63,1.4,1.18,2.24,1.64.85.47,1.75.85,2.74,1.12.96.27,1.94.38,2.96.38,1.51,0,2.79-.22,3.91-.68,1.15-.47,2.02-1.12,2.66-1.97.63-.82.96-1.83.96-2.98,0-1.07-.22-1.97-.63-2.68Z"/>
          <path class="cls-1" d="M188.62,90.75v9.47h-12.51v-9.47h-2.38v20.77h2.38v-9.25h12.51v9.25h2.38v-20.77h-2.38Z"/>
          <path class="cls-1" d="M202.06,90.75v20.77h2.35v-20.77h-2.35Z"/>
          <path class="cls-1" d="M230.38,90.75v17.11l-12.45-17.11h-2.46v20.77h2.35v-17.13l12.48,17.13h2.44v-20.77h-2.35Z"/>
          <path class="cls-1" d="M246.17,109.47v-7.47h10.48v-2.05h-10.48v-7.11h11.71v-2.08h-14.09v20.77h14.48v-2.05h-12.1Z"/>
          <path class="cls-1" d="M293.03,92.83v-2.08h-13.19v20.77h2.38v-9h9.69v-2.03h-9.69v-7.66h10.81Z"/>
          <path class="cls-1" d="M315.8,90.75v12.32c0,2.11-.55,3.72-1.67,4.87-1.12,1.15-2.65,1.73-4.63,1.73s-3.5-.57-4.63-1.75c-1.12-1.15-1.7-2.76-1.7-4.84v-12.32h-2.38v12.32c0,1.81.36,3.34,1.04,4.65.71,1.29,1.7,2.27,3.01,2.95,1.31.68,2.85,1.04,4.65,1.04s3.37-.36,4.65-1.04c1.29-.68,2.27-1.67,2.96-2.95.68-1.31,1.04-2.85,1.04-4.65v-12.32h-2.35Z"/>
          <path class="cls-1" d="M340.1,104.41l-.36-.52h-2.41l.6.93,4.41,6.7h2.68l-4.93-7.11ZM342.7,92.59c-1.42-1.23-3.45-1.83-6.07-1.83h-7.88v20.77h2.38v-6.65h5.5c.47,0,.9-.03,1.31-.05.79-.08,1.5-.22,2.16-.41,1.04-.33,1.89-.79,2.6-1.42,1.42-1.26,2.14-3.01,2.14-5.28s-.71-3.91-2.14-5.12ZM341.01,101.54c-1.04.88-2.49,1.29-4.38,1.29h-5.5v-9.99h5.5c1.89,0,3.34.41,4.38,1.23,1.04.85,1.56,2.08,1.56,3.69s-.52,2.93-1.56,3.78Z"/>
          <path class="cls-1" d="M352.12,90.75v2.08h6.79v18.69h2.35v-18.69h6.81v-2.08h-15.95Z"/>
          <path class="cls-1" d="M391.14,90.75v9.47h-12.51v-9.47h-2.38v20.77h2.38v-9.25h12.51v9.25h2.38v-20.77h-2.38Z"/>
          <path class="cls-1" d="M406.94,109.47v-7.47h10.48v-2.05h-10.48v-7.11h11.74v-2.08h-14.09v20.77h14.48v-2.05h-12.12Z"/>
          <path class="cls-1" d="M440,104.41l-.36-.52h-2.41l.6.93,4.41,6.7h2.68l-4.93-7.11ZM442.6,92.59c-1.42-1.23-3.45-1.83-6.07-1.83h-7.88v20.77h2.38v-6.65h5.5c.47,0,.9-.03,1.31-.05.79-.08,1.5-.22,2.16-.41,1.04-.33,1.89-.79,2.6-1.42,1.42-1.26,2.14-3.01,2.14-5.28s-.71-3.91-2.14-5.12ZM440.9,101.54c-1.04.88-2.49,1.29-4.38,1.29h-5.5v-9.99h5.5c1.89,0,3.34.41,4.38,1.23,1.04.85,1.56,2.08,1.56,3.69s-.52,2.93-1.56,3.78Z"/>
        </g>
        <g>
          <g>
            <polygon class="cls-1" points="306.9 17.33 306.9 70.57 296.77 70.57 296.77 47.28 270.04 47.28 270.04 70.57 259.9 70.57 259.9 17.33 270.04 17.33 270.04 38.87 296.77 38.87 296.77 17.33 306.9 17.33"/>
            <polygon class="cls-1" points="222.08 62.16 253.98 62.16 253.98 70.56 204.2 70.56 236.07 25.73 207.97 25.73 207.97 17.33 253.98 17.33 222.08 62.16"/>
            <path class="cls-1" d="M338.42,17.35l-26.6,53.2h10.89l4.11-8.4h23.15l4.13,8.4h10.92l-26.6-53.2ZM330.92,53.75l7.5-15.41,7.47,15.41h-14.97Z"/>
            <path class="cls-1" d="M174.02,17.35l-26.6,53.2h10.89l4.11-8.4h23.15l4.13,8.4h10.92l-26.6-53.2ZM166.52,53.75l7.5-15.41,7.47,15.41h-14.97Z"/>
          </g>
          <g>
            <polygon class="cls-1" points="433.04 17.33 433.04 25.73 413.31 25.73 413.31 70.57 403.18 70.57 403.18 25.73 383.45 25.73 383.45 17.33 433.04 17.33"/>
            <path class="cls-1" d="M509.28,17.35l-26.6,53.2h10.92l4.08-8.4h23.18l4.13,8.4h10.89l-26.6-53.2ZM501.78,53.75l7.5-15.41,7.47,15.41h-14.97Z"/>
            <path class="cls-1" d="M563.2,17.35l-15.68,32.18-15.71-32.18h-10.92l26.6,53.2,26.6-53.2h-10.89Z"/>
            <polygon class="cls-1" points="662.29 62.16 662.29 70.57 624.22 70.57 624.22 17.34 634.36 17.34 634.36 62.16 662.29 62.16"/>
            <polygon class="cls-1" points="618.6 62.28 618.6 70.57 579.41 70.57 579.41 17.34 617.67 17.34 617.67 25.62 589.57 25.63 589.57 39.53 612.6 39.53 612.6 47.55 589.57 47.55 589.57 62.28 618.6 62.28"/>
            <path class="cls-1" d="M469.93,55.75c-.63-.88-1.29-1.7-1.91-2.55,6.7-2.33,12.07-8.15,12.73-15.43,1.29-11.91-8.35-20.44-20.64-20.44-3.64,0-7.2.03-10.65,0h-9.77v53.26h9.77v-16.34c2.46.03,5.06.05,8.13.11h.6l11.69,16.23h10.89s-4.65-6.38-6.05-8.29c-1.61-2.19-3.2-4.38-4.79-6.54ZM461.47,45.92c-4,.05-8.02.11-12.01.11v-20.42c3.56.03,7.12.05,10.65.11,4.38-.22,7.85,1.91,9.63,5.72,2.9,6.1-1.2,14.31-8.27,14.48Z"/>
          </g>
        </g>
      </g>
      <g>
        <path class="cls-2" d="M55.21,67.18L15.71,106.68C5.95,95.33,0,80.61,0,64.5,0,39.38,14.37,17.6,35.36,7.01l19.85,19.85c11.14,11.14,11.14,29.18,0,40.32Z"/>
        <path class="cls-2" d="M61.86,20.2L44.77,3.11c6.22-2.01,12.88-3.11,19.77-3.11,16.11,0,30.83,5.95,42.14,15.71l-4.49,4.49c-11.14,11.14-29.18,11.14-40.32,0Z"/>
        <path class="cls-2" d="M102.19,73.83l19.89,19.85c-10.67,20.99-32.45,35.36-57.53,35.36-16.14,0-30.87-5.91-42.17-15.71l39.5-39.5c11.14-11.14,29.18-11.14,40.32,0Z"/>
        <path class="cls-2" d="M129.04,64.5c0,6.89-1.06,13.55-3.11,19.77l-17.09-17.09c-11.14-11.14-11.14-29.18,0-40.32l4.49-4.49c9.8,11.3,15.71,26.03,15.71,42.13Z"/>
      </g>
    </g>
  </g>
</svg>